<svg xmlns="http://www.w3.org/2000/svg" viewBox="0 0 172.99 38.46"><defs><style>.cls-1{fill:#2e469a;}.cls-2{fill:#dcddde;}.cls-3{fill:#bdbec0;}</style></defs><title>Asset 8</title><g id="Layer_2" data-name="Layer 2"><g id="Layer_1-2" data-name="Layer 1"><path class="cls-1" d="M19.31,0a19.31,19.31,0,0,0-2.44,38.46V33.21a14.13,14.13,0,1,1,4.87,0v5.25A19.31,19.31,0,0,0,19.31,0Z"/><path class="cls-1" d="M19.31,9.09a10.14,10.14,0,0,0-2.43,20V23.92a5.29,5.29,0,1,1,4.85,0v5.16a10.14,10.14,0,0,0-2.42-20Z"/><path class="cls-2" d="M57.06,13.55A8.6,8.6,0,0,1,64,16.79l-3.46,2.6a4.27,4.27,0,0,0-3.45-1.64,4.47,4.47,0,0,0-4.67,4.42,4.59,4.59,0,0,0,4.67,4.56,4.27,4.27,0,0,0,3.45-1.67L64,27.62a8.61,8.61,0,0,1-6.94,3.28,8.7,8.7,0,0,1-9-8.73C48.08,16.94,52.28,13.55,57.06,13.55Z"/><path class="cls-2" d="M73.19,13.55a8.62,8.62,0,0,1,6.92,3.24l-3.46,2.6a4.28,4.28,0,0,0-3.46-1.64,4.47,4.47,0,0,0-4.66,4.42,4.58,4.58,0,0,0,4.66,4.56,4.27,4.27,0,0,0,3.46-1.67l3.49,2.56a9,9,0,0,1-15.92-5.45C64.22,16.94,68.42,13.55,73.19,13.55Z"/><path class="cls-2" d="M81.67,6.5H86v24H81.67Z"/><path class="cls-2" d="M101.41,28.41c-1.07,1.71-3.53,2.45-5.17,2.45a8.42,8.42,0,0,1-8.48-8.65,8.4,8.4,0,0,1,8.48-8.66c1.5,0,4,.57,5.17,2.42V13.91h4.34V30.54h-4.34ZM96.85,26.7a4.49,4.49,0,1,0,0-9,4.49,4.49,0,1,0,0,9Z"/><path class="cls-2" d="M108.53,30.54V6.5h4.35v9.62c.89-1.68,3-2.57,5.2-2.57,4.38,0,8.16,3.39,8.16,8.69s-3.81,8.66-8.16,8.66c-2.17,0-4.31-.93-5.2-2.6v2.24Zm8.84-3.81a4.33,4.33,0,0,0,4.38-4.56,4.3,4.3,0,0,0-4.38-4.49A4.34,4.34,0,0,0,113,22.17,4.39,4.39,0,0,0,117.37,26.73Z"/><path class="cls-2" d="M127.31,18.5c0-2.67,2.81-4.95,6.12-4.95,3.14,0,6.35,1.43,6.49,5.24h-4.13a2,2,0,0,0-2.25-1.71c-1.07,0-2.1.39-2.1,1.64,0,.67.78,1.14,1.74,1.39l2.78.67c3.85,1,4.35,3.67,4.35,5,0,3.38-3.35,5.13-6.8,5.13-3.28,0-6.63-2-6.7-5.59h4.06a2.79,2.79,0,0,0,3.06,2.1c1.21,0,2.18-.71,2.18-1.67s-.61-1.29-1.82-1.57L132,23.6C127.7,22.42,127.31,20.46,127.31,18.5Z"/><path class="cls-3" d="M144.37,25.49a2.71,2.71,0,1,1-2.78,2.7A2.74,2.74,0,0,1,144.37,25.49Z"/><path class="cls-3" d="M161,28.41c-1.07,1.71-3.53,2.45-5.17,2.45a8.42,8.42,0,0,1-8.48-8.65,8.4,8.4,0,0,1,8.48-8.66c1.5,0,4,.57,5.17,2.42V13.91h4.34V30.54H161Zm-4.56-1.71a4.49,4.49,0,1,0,0-9,4.49,4.49,0,1,0,0,9Z"/><path class="cls-3" d="M170.25,6.5A2.67,2.67,0,0,1,173,9.1a2.68,2.68,0,0,1-2.74,2.64,2.72,2.72,0,0,1-2.82-2.64A2.72,2.72,0,0,1,170.25,6.5Zm2.13,24h-4.31V13.91h4.31Z"/></g></g></svg>