<svg xmlns="http://www.w3.org/2000/svg" viewBox="0 0 124 124"><defs><style>.a{fill:#2794d1;}.b{fill:#fff;}.c{fill:#46cff6;}</style></defs><g transform="translate(-874 -704)"><circle class="a" cx="62" cy="62" r="62" transform="translate(874 704)"/><g transform="translate(909 717)"><path class="b" d="M26.885,39.8a7.9,7.9,0,1,0-7.9-7.9,7.9,7.9,0,0,0,7.9,7.9Zm0-11.8a3.9,3.9,0,1,1-3.9,3.9A3.9,3.9,0,0,1,26.885,28Z"/><path class="b" d="M48.585,59.5l1.3-1.5a14.7,14.7,0,0,0-.764-20.775l-.136-.125a16.9,16.9,0,0,0-6.1-3.7c-.4-11.8-5.3-22.8-14.6-32L26.885,0l-1.4,1.4c-9.3,9.2-14.2,20.2-14.6,32a15.8,15.8,0,0,0-6,3.7A14.7,14.7,0,0,0,3.757,57.858L3.885,58l1.3,1.5,8.7-7.8a47.1,47.1,0,0,0,5.3,10.5c1.5,2.2,5.1,3.1,8.1,3.1h.1c1.6,0,5.3-.3,6.9-2.5a52.6,52.6,0,0,0,5.6-11.1Zm1.2-11.9a10.7,10.7,0,0,1-1.6,6.1l-6.6-5.9h.2l-.5-.6c.3-1,.5-1.9.7-2.9a49.5,49.5,0,0,0,.8-6.6,21.1,21.1,0,0,1,3.5,2.5A11,11,0,0,1,49.785,47.6ZM26.885,5.7a49.6,49.6,0,0,1,5.4,6.9,13.5,13.5,0,0,1-10.8,0A49.6,49.6,0,0,1,26.885,5.7Zm-7.4,10.4a17.6,17.6,0,0,0,7.4,1.6,17.3,17.3,0,0,0,7.4-1.6,42,42,0,0,1,3.8,27.4c-.2.7-.3,1.4-.5,2.2a20.2,20.2,0,0,1-21.4,0c-.1-.7-.3-1.4-.4-2.1A40.5,40.5,0,0,1,19.485,16.1Zm-12,24a21.1,21.1,0,0,1,3.5-2.5,39.6,39.6,0,0,0,.9,6.8,13.1,13.1,0,0,0,.6,2.7l-.4.6h.1l-6.6,5.9A11,11,0,0,1,7.485,40.1Zm23.5,20.4a7.4,7.4,0,0,1-4.3.8c-2.4-.2-3.9-.9-4.2-1.3a45,45,0,0,1-4.6-9,23.4,23.4,0,0,0,18,0A50.3,50.3,0,0,1,30.985,60.5Z"/><rect class="b" width="4" height="10.54" transform="translate(24.885 70.7)"/><rect class="b" width="4" height="8.67" transform="translate(34.185 67.9)"/><rect class="b" width="4" height="8.67" transform="translate(15.585 67.9)"/></g><path class="c" d="M59.351,22.068v-.38a10.4,10.4,0,0,0-10.4-10.4h-.634A11.794,11.794,0,0,0,37.031,3.045a11.54,11.54,0,0,0-9.385,4.692L25.11,7.484a9.511,9.511,0,0,0-3.3.507A11.921,11.921,0,0,0,10.653,0,11.667,11.667,0,0,0,0,6.47Z" transform="translate(874.016 802.955)"/><path class="c" d="M48.37,14.184l4.849-.242A11.274,11.274,0,0,0,41.945,3.274a11.517,11.517,0,0,0-7.637,2.909A12.971,12.971,0,0,0,23.154,0,13.335,13.335,0,0,0,10.789,8.486,13.456,13.456,0,0,0,0,16.609Z" transform="matrix(0.985, -0.174, 0.174, 0.985, 936.962, 808.293)"/></g></svg>