<svg xmlns="http://www.w3.org/2000/svg" viewBox="0 0 124 124"><defs><style>.a{fill:#2794d1;}.b{fill:#fff;}</style></defs><g transform="translate(-656 -3628)"><g transform="translate(656 3628)"><path class="a" d="M76,38A62,62,0,1,1,14-24,62,62,0,0,1,76,38" transform="translate(48 24)"/></g><path class="b" d="M43.5,0H4.5A4.505,4.505,0,0,0,0,4.5V33.9a4.505,4.505,0,0,0,4.5,4.5h39A4.505,4.505,0,0,0,48,33.9V4.5A4.505,4.505,0,0,0,43.5,0ZM23.97,22.56a1.081,1.081,0,0,1-.675-.229L3.6,7.56V4.5a.89.89,0,0,1,.9-.9h39a.89.89,0,0,1,.9.9V7.559L24.661,22.319A1.1,1.1,0,0,1,23.97,22.56ZM3.6,12.06,21.108,25.191A4.466,4.466,0,0,0,24,26.16a4.975,4.975,0,0,0,2.862-.947L44.4,12.06V33.9a.89.89,0,0,1-.9.9H4.5a.89.89,0,0,1-.9-.9Z" transform="translate(694 3671)"/></g></svg>