<svg xmlns="http://www.w3.org/2000/svg" xmlns:xlink="http://www.w3.org/1999/xlink" viewBox="0 0 124 124"><defs><style>.a{fill:none;}.b{clip-path:url(#a);}.c{fill:#153d9d;}.d{fill:#fff;}</style><clipPath id="a"><path class="a" d="M0,76H124V-48H0Z" transform="translate(0 48)"/></clipPath></defs><g transform="translate(0 48)"><g class="b" transform="translate(0 -48)"><path class="c" d="M76,38A62,62,0,1,1,14-24,62,62,0,0,1,76,38" transform="translate(48 24)"/><g transform="translate(36.109 28.555)"><path class="d" d="M3.235,30.594c-.77-.806-1.581-1.532-2.247-2.374a10.126,10.126,0,0,1,.421-13.294c.121-.134.23-.282.416-.512-1.116-1.082-2.253-2.134-3.33-3.24a1.646,1.646,0,0,1,.77-2.836,1.761,1.761,0,0,1,1.7.623q3.708,3.716,7.427,7.424c.486.488.982.969,1.449,1.475a1.623,1.623,0,0,1-.416,2.6,1.743,1.743,0,0,1-2.041-.387c-.948-.922-1.883-1.857-2.818-2.793-.129-.129-.238-.284-.388-.465A6.591,6.591,0,0,0,2.2,20.377a6.769,6.769,0,0,0,1.762,6.239c.977,1.046,2,2.051,3.028,3.051a1,1,0,0,0,.635.245q9.552.019,19.1-.005a.987.987,0,0,0,.672-.357,21.287,21.287,0,0,0,4.353-9.662,18.786,18.786,0,0,0-.318-7.53,17.456,17.456,0,0,0-2.059-5.035.922.922,0,0,0-.592-.369,7.776,7.776,0,0,1-3.193-.891c-.331-.2-.465.036-.641.212Q20.725,10.5,16.5,14.727c-1.131,1.132-1.886,1.129-3.03-.015Q8.647,9.891,3.826,5.073A1.749,1.749,0,0,1,3.105,3.58a3.376,3.376,0,0,1,.356-.961,1.986,1.986,0,0,1,.408-.455Q13.713-7.667,23.558-17.5a5.683,5.683,0,0,1,4.782-1.8,4.867,4.867,0,0,1,2.973,1.271c1.842,1.79,3.717,3.56,5.407,5.487a5.166,5.166,0,0,1,.7,5.8,9.025,9.025,0,0,1-2.247,2.746.774.774,0,0,0-.191.992c.325.915.486,1.888.739,2.831a2.3,2.3,0,0,0,.385.922,27.156,27.156,0,0,1,6.024,11.318c.165.648.294,1.3.462,2.049,1.165-.152,2.33-.307,3.6-.473-.315-1.129-.6-2.2-.912-3.258-.121-.411-.31-.8-.455-1.2a1.659,1.659,0,0,1,.9-2.219A1.618,1.618,0,0,1,47.9,7.995c.493,1.379.953,2.777,1.323,4.2a25.355,25.355,0,0,1,.563,7.983,13.931,13.931,0,0,1-.271,1.93,1.652,1.652,0,0,1-1.9,1.387,1.745,1.745,0,0,1-1.359-2c.132-1.312.212-2.63.31-3.945.013-.163,0-.328,0-.576l-3.58.465a29.728,29.728,0,0,1-2.328,12.374,18.871,18.871,0,0,1,2.077.295,6.407,6.407,0,0,1,4.921,6.151c.039,1.338.023,2.681.005,4.02A1.673,1.673,0,0,1,45.9,42.033c-.075,0-.15,0-.225,0q-21.952,0-43.909-.015A2.188,2.188,0,0,1,.535,41.65,1.582,1.582,0,0,1-.1,40.609a43.374,43.374,0,0,1,.057-5.185A6,6,0,0,1,2.919,30.86c.078-.049.158-.1.233-.152a.65.65,0,0,0,.083-.114M32.589-6.077c.421-.416,1.015-.93,1.519-1.519a2.265,2.265,0,0,0-.155-3.221q-2.174-2.209-4.381-4.384a2.391,2.391,0,0,0-3.723.018L7.445,3.223c-.124.124-.243.256-.346.369q4.034,3.987,7.936,7.843c2.519-2.5,5.087-5.035,7.636-7.595a.777.777,0,0,0,.049-.61A14.781,14.781,0,0,1,21.92.3a6.821,6.821,0,0,1,7.4-7.195,21.137,21.137,0,0,1,3.265.814M44.338,38.682c0-.672-.028-1.3.005-1.93a3.3,3.3,0,0,0-3.555-3.568c-5.585.062-11.168.021-16.753.021q-8.765,0-17.533,0a2.989,2.989,0,0,0-3.229,2.415,17.22,17.22,0,0,0-.034,3.059Zm-13.1-8.8c1.888,0,3.658.008,5.425-.013a.55.55,0,0,0,.4-.274,25.381,25.381,0,0,0,2.477-13.265A23.419,23.419,0,0,0,34.875,4.44c-.114-.155-.248-.3-.279-.333-.39.326-.731.612-1.072.9s-.71.594-1.07.894c4.079,8.176,3.71,16.148-1.219,23.978M32.408.066a3.619,3.619,0,0,0-3.591-3.7A3.687,3.687,0,0,0,25.208-.218a3.628,3.628,0,0,0,3.4,3.823,3.611,3.611,0,0,0,3.8-3.539" transform="translate(2.043 19.322)"/></g><g transform="translate(71.393 24.985)"><path class="d" d="M1.175,0a4.111,4.111,0,0,1,.982.581C3.8,2.173,5.409,3.795,7.013,5.422A1.65,1.65,0,1,1,4.68,7.75Q2.22,5.32-.213,2.865A1.59,1.59,0,0,1-.577.974,1.759,1.759,0,0,1,1.175,0" transform="translate(0.742)"/></g></g></g></svg>