<svg xmlns="http://www.w3.org/2000/svg" xmlns:xlink="http://www.w3.org/1999/xlink" viewBox="0 0 124 124"><defs><style>.a{fill:none;}.b{clip-path:url(#a);}.c{fill:#2794d1;}.d{fill:#fff;}</style><clipPath id="a"><path class="a" d="M0,76H124V-48H0Z" transform="translate(0 48)"/></clipPath></defs><g transform="translate(0 48)"><g class="b" transform="translate(0 -48)"><path class="c" d="M76,38A62,62,0,1,1,14-24,62,62,0,0,1,76,38" transform="translate(48 24)"/><g transform="translate(36.046 35.533)"><path class="d" d="M31.649,34.813,16.123-13.578l-.108-.191a2.052,2.052,0,0,1,.377-.191,3.4,3.4,0,0,0,.863-.5,3.945,3.945,0,0,0,1.392-4.722A4.127,4.127,0,0,0,17.932-20c-1.656-1.318-5.7-1.984-12.051-1.984-12.25,0-12.736,2.452-12.868,3.146A3.973,3.973,0,0,0-5.468-14.4,3.661,3.661,0,0,0-4.6-13.9c.114.052.207.093.271.124l-15.546,49-.111.749.145.041c.4,4.5,16.332,5.174,25.88,5.174,9.667,0,25.882-.692,25.882-5.342a2.166,2.166,0,0,0-.269-1.028M6.036,34.12c10.338,0,17.13.945,20.357,1.721-3.224.778-10.01,1.723-20.357,1.723s-17.133-.945-20.357-1.723C-11.095,35.066-4.3,34.12,6.036,34.12m10.656-27.4A72.3,72.3,0,0,1,6.036,7.4,71.618,71.618,0,0,1-4.634,6.722,69.28,69.28,0,0,1,6.036,6.047a72.41,72.41,0,0,1,10.656.674M-.746-14.924a59.183,59.183,0,0,0,6.626.346,58.964,58.964,0,0,0,6.642-.349c-.083.261-.4.692-.349,1.121.078.623,5.629,17.567,5.629,17.567a86.092,86.092,0,0,0-11.767-.8,83.651,83.651,0,0,0-12.051.858L-.668-13.046l.057-.271a3.7,3.7,0,0,0-.134-1.607M-15.05,32.3-7.736,9.238c4.265,1.214,12.759,1.25,13.772,1.25.39,0,9.1-.013,13.539-1.191L26.93,32.245C19.861,30.524,6.632,30.5,6.036,30.5S-8.026,30.524-15.05,32.3" transform="translate(19.989 21.987)"/></g><g transform="translate(57.825 52.859)"><path class="d" d="M1.765,3.429a2.843,2.843,0,0,1-2.88-2.8,2.843,2.843,0,0,1,2.88-2.8,2.843,2.843,0,0,1,2.88,2.8,2.843,2.843,0,0,1-2.88,2.8m0-4.11A1.334,1.334,0,0,0,.414.632,1.334,1.334,0,0,0,1.765,1.944,1.334,1.334,0,0,0,3.116.632,1.334,1.334,0,0,0,1.765-.681" transform="translate(1.115 2.166)"/></g><g transform="translate(63.897 50.424)"><path class="d" d="M1.189,2.31A1.915,1.915,0,0,1-.751.424a1.915,1.915,0,0,1,1.94-1.883A1.917,1.917,0,0,1,3.132.424,1.917,1.917,0,0,1,1.189,2.31m0-2.284a.4.4,0,0,0-.411.4c0,.442.824.442.824,0a.406.406,0,0,0-.413-.4" transform="translate(0.751 1.459)"/></g><g transform="translate(59.495 44.941)"><path class="d" d="M1.476,2.871A2.38,2.38,0,0,1-.932.53,2.38,2.38,0,0,1,1.476-1.813,2.379,2.379,0,0,1,3.886.53a2.379,2.379,0,0,1-2.41,2.34m0-3.2A.87.87,0,0,0,.6.53a.87.87,0,0,0,.878.855A.869.869,0,0,0,2.357.53a.869.869,0,0,0-.881-.858" transform="translate(0.932 1.813)"/></g><g transform="translate(55.547 29.413)"><path class="d" d="M1.583,3.081A2.552,2.552,0,0,1-1,.568,2.552,2.552,0,0,1,1.583-1.946,2.553,2.553,0,0,1,4.169.568,2.553,2.553,0,0,1,1.583,3.081m0-3.539A1.041,1.041,0,0,0,.529.568,1.043,1.043,0,0,0,1.583,1.6,1.045,1.045,0,0,0,2.64.568,1.043,1.043,0,0,0,1.583-.458" transform="translate(1 1.946)"/></g><g transform="translate(59.559 25.296)"><path class="d" d="M1.081,2.1A1.742,1.742,0,0,1-.683.386,1.741,1.741,0,0,1,1.081-1.327,1.741,1.741,0,0,1,2.843.386,1.741,1.741,0,0,1,1.081,2.1m0-1.943A.231.231,0,0,0,.846.386c0,.253.468.256.468,0A.23.23,0,0,0,1.081.158" transform="translate(0.683 1.327)"/></g></g></g></svg>