<svg xmlns="http://www.w3.org/2000/svg" viewBox="0 0 84 84"><defs><style>.a,.d{fill:none;}.a{stroke:#153d9d;stroke-width:3px;}.b{fill:#153d9d;}.c{stroke:none;}</style></defs><g transform="translate(-231 -1624)"><g class="a" transform="translate(231 1624)"><circle class="c" cx="42" cy="42" r="42"/><circle class="d" cx="42" cy="42" r="40.5"/></g><g transform="translate(249 1649)"><path class="b" d="M8.709,25.369h-7.2a1.512,1.512,0,0,0,0,3.024h7.2a1.512,1.512,0,0,0,0-3.024Z"/><path class="b" d="M47.569,25.835l-.144-.147h-.014l-5.243-5.257a1.512,1.512,0,1,0-2.139,2.138l2.8,2.8h-19.9a11.167,11.167,0,1,1,10.428-7.152c-.128.332-.274.663-.433.981q-.175.349-.375.687a1.448,1.448,0,0,0,.639,1.7,1.677,1.677,0,0,0,.945.277,1.191,1.191,0,0,0,1.016-.432c.138-.233.267-.466.389-.7A14.2,14.2,0,0,0,22.952,0h0A14.267,14.267,0,0,0,10.723,6.968,14.2,14.2,0,0,0,22.934,28.393h19.9l-2.8,2.8a1.512,1.512,0,1,0,2.139,2.139l5.381-5.365a1.512,1.512,0,0,0,.021-2.135Z"/></g></g></svg>