<svg xmlns="http://www.w3.org/2000/svg" viewBox="0 0 84 84"><defs><style>.a,.d{fill:none;}.a{stroke:#153d9d;stroke-width:3px;}.b{fill:#1f4298;}.c{stroke:none;}</style></defs><g transform="translate(-516 -1624)"><g class="a" transform="translate(516 1624)"><circle class="c" cx="42" cy="42" r="42"/><circle class="d" cx="42" cy="42" r="40.5"/></g><g transform="translate(538 1643)"><rect class="b" width="21.861" height="2.182" transform="translate(9.07 14)"/><rect class="b" width="21.861" height="2.182" transform="translate(9.07 35.818)"/><rect class="b" width="17.457" height="2.182" transform="translate(13.434 19.877)"/><rect class="b" width="2.182" height="2.182" transform="translate(9.07 19.877)"/><rect class="b" width="17.457" height="2.182" transform="translate(13.434 25.076)"/><rect class="b" width="2.182" height="2.182" transform="translate(9.07 25.076)"/><rect class="b" width="17.457" height="2.182" transform="translate(13.434 30.194)"/><rect class="b" width="2.182" height="2.182" transform="translate(9.07 30.194)"/><path class="b" d="M30.125,0H5A5.015,5.015,0,0,0,0,5V41a5.015,5.015,0,0,0,5,5H35a5.015,5.015,0,0,0,5-5V7.714C40,6.744,31.869,0,30.125,0Zm2.31,6.99h-.081V6.915ZM37,41a2.027,2.027,0,0,1-2,2H5a2.027,2.027,0,0,1-2-2V5A2.027,2.027,0,0,1,5,3H29.354V7.99a2.006,2.006,0,0,0,2,2H37V41Z"/></g></g></svg>