<svg xmlns="http://www.w3.org/2000/svg" viewBox="0 0 84 84"><defs><style>.a,.d{fill:none;}.a{stroke:#153d9d;stroke-width:3px;}.b{fill:#1f4298;}.c{stroke:none;}</style></defs><g transform="translate(-231 -1425)"><g class="a" transform="translate(231 1425)"><circle class="c" cx="42" cy="42" r="42"/><circle class="d" cx="42" cy="42" r="40.5"/></g><g transform="translate(249 1443)"><path class="b" d="M27.7.284a4.681,4.681,0,0,0-3.771,1.072,4.607,4.607,0,0,0-.474.467A6.879,6.879,0,0,0,13.119,2.99a6.957,6.957,0,0,0-6.39,6.2,5.471,5.471,0,0,0-1.957,2.6,6.866,6.866,0,0,0-3.541,8.8,7.619,7.619,0,0,0,.488,8.976,7.6,7.6,0,0,0-.233,1.863,7.7,7.7,0,0,0,5.98,7.461,6.132,6.132,0,0,0,3.046,2.7,7.631,7.631,0,0,0,12.75,4.345A4.688,4.688,0,0,0,27.7,47.716,23.86,23.86,0,0,0,48,24,23.86,23.86,0,0,0,27.7.284ZM27.327,2.7a21.558,21.558,0,0,1,0,42.6,2.238,2.238,0,0,1-2.583-2.207V4.908A2.238,2.238,0,0,1,27.327,2.7ZM11.452,39.326a3.711,3.711,0,0,1,1.4-7.151V30.689a5.187,5.187,0,0,0-5.174,5.735A5.2,5.2,0,0,1,9.136,26.23V24.743a6.683,6.683,0,0,0-5.647,3.119,5.183,5.183,0,0,1,.29-6.586l.37-.414-.292-.473a4.43,4.43,0,0,1,1.606-6.207,4.463,4.463,0,0,0,4.416,3.871V16.568a2.973,2.973,0,1,1,2.973-2.973h1.486A4.464,4.464,0,0,0,9.879,9.135a4.538,4.538,0,0,0-.685.058,4.463,4.463,0,0,1,3.844-3.735,5.922,5.922,0,0,0,5.76,7.394V11.365a4.459,4.459,0,1,1,4.459-4.459V40.351a5.2,5.2,0,1,1-5.2-5.2V33.662A6.693,6.693,0,0,0,11.452,39.326Z"/><path class="b" d="M31.371,18.8v-5.2H29.884v5.2a.743.743,0,0,1-.743.743H26.168v1.486h2.973A2.232,2.232,0,0,0,31.371,18.8Z"/><path class="b" d="M30.628,12.108a2.23,2.23,0,1,0-2.23-2.23A2.232,2.232,0,0,0,30.628,12.108Zm0-1.486a.743.743,0,1,1,.743-.743A.743.743,0,0,1,30.628,10.622Z"/><path class="b" d="M29.884,29.2v5.2h1.486V29.2a2.232,2.232,0,0,0-2.23-2.23H26.168v1.486h2.973A.744.744,0,0,1,29.884,29.2Z"/><path class="b" d="M30.628,35.892a2.23,2.23,0,1,0,2.23,2.23A2.232,2.232,0,0,0,30.628,35.892Zm0,1.486a.743.743,0,1,1-.743.743A.743.743,0,0,1,30.628,37.378Z"/><path class="b" d="M37.317,21.027V18.8H35.83v2.23a2.232,2.232,0,0,1-2.23,2.23H26.168v1.486H33.6A3.72,3.72,0,0,0,37.317,21.027Z"/><path class="b" d="M36.573,17.311a2.23,2.23,0,1,0-2.23-2.23A2.232,2.232,0,0,0,36.573,17.311Zm0-1.486a.743.743,0,1,1,.743-.743A.743.743,0,0,1,36.573,15.824Z"/><rect class="b" width="1.486" height="7.432" transform="translate(35.83 26.973)"/><rect class="b" width="1.486" height="11.892" transform="translate(39.546 16.568)"/><rect class="b" width="1.486" height="1.486" transform="translate(39.546 29.946)"/><rect class="b" width="1.486" height="1.486" transform="translate(18.736 6.163)"/><rect class="b" width="1.486" height="1.486" transform="translate(15.02 23.257)"/><rect class="b" width="1.486" height="1.486" transform="translate(19.479 39.608)"/><rect class="b" width="1.486" height="1.486" transform="translate(6.844 28.459)"/><rect class="b" width="1.486" height="1.486" transform="translate(20.223 18.054)"/><rect class="b" width="1.486" height="1.486" transform="translate(6.101 19.541)"/></g></g></svg>