<svg xmlns="http://www.w3.org/2000/svg" viewBox="0 0 84 84"><defs><style>.a,.d{fill:none;}.a{stroke:#153d9d;stroke-width:3px;}.b{fill:#153d9d;}.c{stroke:none;}</style></defs><g transform="translate(-1086 -1624)"><g class="a" transform="translate(1086 1624)"><circle class="c" cx="42" cy="42" r="42"/><circle class="d" cx="42" cy="42" r="40.5"/></g><path class="b" d="M43.079,27.813a4.883,4.883,0,0,0-4.609,3.316H19.038a3.2,3.2,0,0,1-3.2-3.2h0v-.937a3.2,3.2,0,0,1,3.2-3.192h3.946a6.218,6.218,0,1,0,0-12.435H17.8V9.21a6.226,6.226,0,0,1,6.209-6.2h5.529a6.226,6.226,0,0,1,6.217,6.218v7.3a4.891,4.891,0,1,0,3.018-.083V14.2h6.3a.754.754,0,0,0,0-1.509h-6.3v-.928h3.391a.754.754,0,0,0,0-1.509H38.777V9.227A9.235,9.235,0,0,0,29.55,0H24.012a9.235,9.235,0,0,0-9.218,9.227v2.155H9.546a4.891,4.891,0,1,0,0,3.009h13.43a3.2,3.2,0,0,1,0,6.392H19.038a6.2,6.2,0,0,0-5.969,4.609H10.375a.754.754,0,1,0,0,1.509h2.488v.846H7.432a.754.754,0,0,0,0,1.509h5.5a6.217,6.217,0,0,0,6.1,4.891h7.967V38.98a2.487,2.487,0,0,1-2.446,2.446H19.329a4.891,4.891,0,1,0,0,3.009h5.214A5.463,5.463,0,0,0,30,38.98V34.147h8.456a4.883,4.883,0,1,0,4.626-6.334Zm-5.712-8.555a1.882,1.882,0,1,1-1.882,1.882,1.882,1.882,0,0,1,1.882-1.882ZM4.945,14.789a1.882,1.882,0,1,1,1.882-1.882,1.882,1.882,0,0,1-1.882,1.882Zm9.782,30.035a1.882,1.882,0,1,1,1.823-1.939q0,.02,0,.04A1.882,1.882,0,0,1,14.7,44.807ZM43.079,34.586A1.882,1.882,0,1,1,44.961,32.7a1.882,1.882,0,0,1-1.882,1.882Z" transform="translate(1104 1642)"/></g></svg>