<svg xmlns="http://www.w3.org/2000/svg" viewBox="0 0 84 84"><defs><style>.a,.d{fill:none;}.a{stroke:#153d9d;stroke-width:3px;}.b{fill:#1f4298;}.c{stroke:none;}</style></defs><g transform="translate(-516 -1425)"><g class="a" transform="translate(516 1425)"><circle class="c" cx="42" cy="42" r="42"/><circle class="d" cx="42" cy="42" r="40.5"/></g><g transform="translate(534 1443)"><path class="b" d="M24,0A24,24,0,1,0,48,24,24.027,24.027,0,0,0,24,0ZM45.6,24A21.6,21.6,0,1,1,24,2.4,21.625,21.625,0,0,1,45.6,24Z"/><path class="b" d="M24,3.366A20.634,20.634,0,1,0,44.634,24,20.658,20.658,0,0,0,24,3.366Zm0,40.015A19.381,19.381,0,1,1,43.38,24,19.4,19.4,0,0,1,24,43.381Z"/><path class="b" d="M19.963,11.47a2.508,2.508,0,1,0-2.508,2.508A2.511,2.511,0,0,0,19.963,11.47Zm-3.762,0a1.254,1.254,0,1,1,1.254,1.254A1.255,1.255,0,0,1,16.2,11.47Z"/><path class="b" d="M34.352,22.008A2.508,2.508,0,1,0,31.844,19.5,2.51,2.51,0,0,0,34.352,22.008Zm0-3.762A1.254,1.254,0,1,1,33.1,19.5,1.255,1.255,0,0,1,34.352,18.246Z"/><path class="b" d="M21.217,31.9a2.508,2.508,0,1,0,2.508,2.509A2.511,2.511,0,0,0,21.217,31.9Zm0,3.763a1.254,1.254,0,1,1,1.254-1.254A1.256,1.256,0,0,1,21.217,35.666Z"/><path class="b" d="M12.662,23.373a2.508,2.508,0,1,0,2.508,2.508A2.511,2.511,0,0,0,12.662,23.373Zm0,3.762a1.254,1.254,0,1,1,1.254-1.254A1.255,1.255,0,0,1,12.662,27.135Z"/><path class="b" d="M24.178,20.645a4.015,4.015,0,1,0-4.015,4.015A4.019,4.019,0,0,0,24.178,20.645Zm-6.776,0a2.761,2.761,0,1,1,2.761,2.761A2.765,2.765,0,0,1,17.4,20.645Z"/><path class="b" d="M21.252,20.645a.627.627,0,1,0,1.254,0A2.346,2.346,0,0,0,20.164,18.3a.627.627,0,0,0,0,1.255A1.09,1.09,0,0,1,21.252,20.645Z"/><path class="b" d="M32.471,28.889A4.015,4.015,0,1,0,36.485,32.9,4.02,4.02,0,0,0,32.471,28.889Zm0,6.777A2.761,2.761,0,1,1,35.232,32.9,2.764,2.764,0,0,1,32.471,35.666Z"/><path class="b" d="M25.231,12.1v1.23a.627.627,0,1,0,1.254,0V12.1c0-.611,0-.658,0-1.254V9.613a.627.627,0,1,0-1.254,0V12.1Z"/><path class="b" d="M25.231,12.1v1.23a.627.627,0,1,0,1.254,0V12.1c0-.611,0-.658,0-1.254V9.613a.627.627,0,1,0-1.254,0V12.1Z" transform="translate(1 15)"/><path class="b" d="M25.231,12.1v1.23a.627.627,0,1,0,1.254,0V12.1c0-.611,0-.658,0-1.254V9.613a.627.627,0,1,0-1.254,0V12.1Z" transform="translate(-12 23)"/><path class="b" d="M25.231,12.1v.23a.627.627,0,1,0,1.254,0V12.1c0-.611,0-.658,0-1.254v-.23a.627.627,0,1,0-1.254,0V12.1Z" transform="translate(12 14)"/><path class="b" d="M25.231,12.1v.23a.627.627,0,1,0,1.254,0V12.1c0-.611,0-.658,0-1.254v-.23a.627.627,0,1,0-1.254,0V12.1Z" transform="translate(-14 7)"/><path class="b" d="M25.231,12.1v.23a.627.627,0,1,0,1.254,0V12.1c0-.611,0-.658,0-1.254v-.23a.627.627,0,1,0-1.254,0V12.1Z" transform="translate(0 29)"/></g></g></svg>