<svg xmlns="http://www.w3.org/2000/svg" viewBox="0 0 84 84"><defs><style>.a,.d{fill:none;}.a{stroke:#153d9d;stroke-width:3px;}.b{fill:#153d9d;}.c{stroke:none;}</style></defs><g transform="translate(-801 -1425)"><g class="a" transform="translate(801 1425)"><circle class="c" cx="42" cy="42" r="42"/><circle class="d" cx="42" cy="42" r="40.5"/></g><g transform="translate(826 1443)"><path class="b" d="M16.334,48A16.327,16.327,0,0,1,3.5,21.578c0-.484,0-1.135.01-2.024l0-6.728a12.828,12.828,0,0,1,25.513-1.891,12.983,12.983,0,0,1,.14,1.891,3.339,3.339,0,1,1-6.679,0,6.174,6.174,0,0,0-6.148-6.148,6.155,6.155,0,0,0-6.147,6.148l0,3.709A16.333,16.333,0,1,1,16.334,48Zm0-46A10.838,10.838,0,0,0,5.509,12.826l0,6.742c-.008,1.118-.011,1.856-.01,2.359v.36l-.229.278a14.345,14.345,0,1,0,4.385-3.577l-1.469.778,0-6.941a8.148,8.148,0,1,1,16.3,0,1.339,1.339,0,1,0,2.679,0,10.994,10.994,0,0,0-.118-1.6A10.86,10.86,0,0,0,16.334,2Zm0,41.321A11.657,11.657,0,1,1,27.991,31.665,11.67,11.67,0,0,1,16.334,43.321Zm0-21.313a9.657,9.657,0,1,0,9.657,9.657A9.668,9.668,0,0,0,16.334,22.008Z"/><path class="b" d="M16.334,37.1A1.935,1.935,0,0,1,14.4,35.171V32.6a3.463,3.463,0,0,1-1.5-3.423,3.478,3.478,0,1,1,5.37,3.423v2.576A1.935,1.935,0,0,1,16.334,37.1Zm0-9.878a2.634,2.634,0,0,0-.3.018,2.478,2.478,0,0,0-.893,4.633l.259.143v3.152a.933.933,0,1,0,1.865,0V32.019l.259-.142a2.477,2.477,0,0,0,.456-4.024A2.449,2.449,0,0,0,16.338,27.226Z"/></g></g></svg>